<svg xmlns="http://www.w3.org/2000/svg" height="48" viewBox="0 96 960 960" width="48">
<style>
        path {
            fill: #475569;
        }
        @media (prefers-color-scheme: dark) {
            path { fill: #ECE8F0; }
        }
</style>
<path d="M180 936q-24 0-42-18t-18-42V276q0-24 18-42t42-18h395v60H180v600h600V481h60v395q0 24-18 42t-42 18H180Zm300-205-49.062-107.938L323 574l107.938-49.062L480 417l49.062 107.938L637 574l-107.938 49.062L480 731Zm206-246-38-77-77-38 77-38 38-77 38 77 77 38-77 38-38 77Z"/></svg>