<svg xmlns="http://www.w3.org/2000/svg" height="48" viewBox="0 96 960 960" width="48">
<style>
        path {
            fill: #475569;
        }
        @media (prefers-color-scheme: dark) {
            path { fill: #ECE8F0; }
        }
</style>
<path d="M392 936H180q-24 0-42-18t-18-42V276q0-24 18-42t42-18h212v60H180v600h212v60Zm60 80V136h60v880h-60Zm328-740h-14v-60h14q24 0 42 18t18 42v14h-60v-14Zm0 355V521h60v110h-60Zm0 305h-14v-60h14v-14h60v14q0 24-18 42t-42 18Zm0-475V350h60v111h-60Zm0 341V691h60v111h-60ZM572 936v-60h134v60H572Zm0-660v-60h134v60H572Z"/></svg>