<svg xmlns="http://www.w3.org/2000/svg" height="48" viewBox="0 96 960 960" width="48">
<style>
        path {
            fill: #475569;
        }
        @media (prefers-color-scheme: dark) {
            path { fill: #ECE8F0; }
        }
</style>
<path fill="#ECE8F0" d="M436 976q-73 0-137.5-28.5t-113-77q-48.5-48.5-77-113T80 620q0-146 105-251t251-105h42l-84-84 44-44 158 158-158 158-44-44 84-84h-42q-122 0-209 87t-87 209q0 122 87 209t209 87q54 0 101-14t89-47l42 44q-47 40-108 58.5T436 976Zm262-140L476 614l222-222 222 222-222 222Zm0-82 136-136-136-136-136 136 136 136Zm0-136Z"/></svg>